<svg width="80" height="80" viewBox="0 0 80 80" fill="none" xmlns="http://www.w3.org/2000/svg">
<rect width="80" height="80" rx="8" fill="#0EA5E9" fill-opacity="0.1"/>
<path d="M34 38.5C36.4853 38.5 38.5 36.4853 38.5 34C38.5 31.5147 36.4853 29.5 34 29.5C31.5147 29.5 29.5 31.5147 29.5 34C29.5 36.4853 31.5147 38.5 34 38.5Z" fill="#0EA5E9"/>
<path d="M43.546 45.667L45.667 43.546C45.8076 43.4054 45.8866 43.2146 45.8866 43.0158C45.8866 42.8169 45.8076 42.6261 45.667 42.4855L43.918 40.7357C44.8364 39.3828 45.4683 37.8562 45.775 36.25H48.25C48.4489 36.25 48.6397 36.171 48.7803 36.0303C48.921 35.8897 49 35.6989 49 35.5V32.5C49 32.3011 48.921 32.1103 48.7803 31.9697C48.6397 31.829 48.4489 31.75 48.25 31.75H45.775C45.4679 30.1437 44.8354 28.6171 43.9165 27.2642L45.6655 25.5145C45.8061 25.3739 45.8851 25.1831 45.8851 24.9843C45.8851 24.7854 45.8061 24.5946 45.6655 24.454L43.546 22.333C43.4054 22.1924 43.2146 22.1134 43.0158 22.1134C42.8169 22.1134 42.6261 22.1924 42.4855 22.333L40.7357 24.082C39.3828 23.1636 37.8562 22.5317 36.25 22.225V19.75C36.25 19.5511 36.171 19.3603 36.0303 19.2197C35.8897 19.079 35.6989 19 35.5 19H32.5C32.3011 19 32.1103 19.079 31.9697 19.2197C31.829 19.3603 31.75 19.5511 31.75 19.75V22.225C30.1437 22.5321 28.6171 23.1646 27.2642 24.0835L25.5145 22.333C25.3739 22.1924 25.1831 22.1134 24.9843 22.1134C24.7854 22.1134 24.5946 22.1924 24.454 22.333L22.333 24.454C22.1924 24.5946 22.1134 24.7854 22.1134 24.9843C22.1134 25.1831 22.1924 25.3739 22.333 25.5145L24.082 27.2642C23.1636 28.6172 22.5317 30.1438 22.225 31.75H19.75C19.5511 31.75 19.3603 31.829 19.2197 31.9697C19.079 32.1103 19 32.3011 19 32.5V35.5C19 35.6989 19.079 35.8897 19.2197 36.0303C19.3603 36.171 19.5511 36.25 19.75 36.25H22.225C22.5321 37.8563 23.1646 39.3829 24.0835 40.7357L22.333 42.4855C22.1924 42.6261 22.1134 42.8169 22.1134 43.0158C22.1134 43.2146 22.1924 43.4054 22.333 43.546L24.454 45.667C24.5946 45.8076 24.7854 45.8866 24.9843 45.8866C25.1831 45.8866 25.3739 45.8076 25.5145 45.667L27.2642 43.918C28.6172 44.8364 30.1438 45.4683 31.75 45.775V48.25C31.75 48.4489 31.829 48.6397 31.9697 48.7803C32.1103 48.921 32.3011 49 32.5 49H35.5C35.6989 49 35.8897 48.921 36.0303 48.7803C36.171 48.6397 36.25 48.4489 36.25 48.25V45.775C37.8563 45.4679 39.3829 44.8354 40.7357 43.9165L42.4855 45.6655C42.6259 45.8063 42.8166 45.8856 43.0154 45.8858C43.2143 45.8861 43.4052 45.8074 43.546 45.667ZM34 40C32.8133 40 31.6533 39.6481 30.6666 38.9888C29.6799 38.3295 28.9108 37.3925 28.4567 36.2961C28.0026 35.1997 27.8838 33.9933 28.1153 32.8295C28.3468 31.6656 28.9182 30.5965 29.7574 29.7574C30.5965 28.9182 31.6656 28.3468 32.8295 28.1153C33.9933 27.8838 35.1997 28.0026 36.2961 28.4567C37.3925 28.9108 38.3295 29.6799 38.9888 30.6666C39.6481 31.6533 40 32.8133 40 34C39.9982 35.5907 39.3655 37.1158 38.2407 38.2407C37.1158 39.3655 35.5907 39.9982 34 40Z" fill="#0EA5E9"/>
<path d="M52.0002 54.2895C53.2648 54.2895 54.29 53.2643 54.29 51.9997C54.29 50.7351 53.2648 49.71 52.0002 49.71C50.7356 49.71 49.7104 50.7351 49.7104 51.9997C49.7104 53.2643 50.7356 54.2895 52.0002 54.2895Z" fill="#0EA5E9"/>
<path d="M60.25 50.3815H59.0747C58.894 49.5885 58.5814 48.8315 58.15 48.142L58.975 47.311C59.0447 47.2413 59.1001 47.1586 59.1378 47.0676C59.1755 46.9765 59.195 46.8789 59.195 46.7804C59.195 46.6818 59.1755 46.5842 59.1378 46.4932C59.1001 46.4021 59.0447 46.3194 58.975 46.2498L57.7502 45.025C57.6067 44.8896 57.4169 44.8142 57.2196 44.8142C57.0223 44.8142 56.8325 44.8896 56.689 45.025L55.858 45.8567C55.1687 45.4241 54.4117 45.1102 53.6185 44.9282V43.75C53.6185 43.5511 53.5395 43.3603 53.3988 43.2197C53.2582 43.079 53.0674 43 52.8685 43H51.1315C50.9326 43 50.7418 43.079 50.6012 43.2197C50.4605 43.3603 50.3815 43.5511 50.3815 43.75V44.9253C49.5883 45.1072 48.8313 45.4211 48.142 45.8538L47.311 45.025C47.2413 44.9553 47.1586 44.8999 47.0676 44.8622C46.9765 44.8245 46.8789 44.805 46.7804 44.805C46.6818 44.805 46.5842 44.8245 46.4932 44.8622C46.4021 44.8999 46.3194 44.9553 46.2498 45.025L45.025 46.2498C44.9553 46.3194 44.8999 46.4021 44.8622 46.4932C44.8245 46.5842 44.805 46.6818 44.805 46.7804C44.805 46.8789 44.8245 46.9765 44.8622 47.0676C44.8999 47.1586 44.9553 47.2413 45.025 47.311L45.8567 48.142C45.4241 48.8313 45.1102 49.5883 44.9282 50.3815H43.75C43.5511 50.3815 43.3603 50.4605 43.2197 50.6012C43.079 50.7418 43 50.9326 43 51.1315V52.8685C43 53.0674 43.079 53.2582 43.2197 53.3988C43.3603 53.5395 43.5511 53.6185 43.75 53.6185H44.9253C45.1072 54.4117 45.4211 55.1687 45.8538 55.858L45.025 56.689C44.9553 56.7587 44.8999 56.8414 44.8622 56.9324C44.8245 57.0235 44.805 57.1211 44.805 57.2196C44.805 57.3182 44.8245 57.4158 44.8622 57.5068C44.8999 57.5979 44.9553 57.6806 45.025 57.7502L46.2498 58.975C46.3933 59.1104 46.5831 59.1858 46.7804 59.1858C46.9777 59.1858 47.1675 59.1104 47.311 58.975L48.142 58.15C48.8313 58.5827 49.5883 58.8966 50.3815 59.0785V60.25C50.3815 60.4489 50.4605 60.6397 50.6012 60.7803C50.7418 60.921 50.9326 61 51.1315 61H52.8685C53.0674 61 53.2582 60.921 53.3988 60.7803C53.5395 60.6397 53.6185 60.4489 53.6185 60.25V59.0747C54.4115 58.894 55.1685 58.5814 55.858 58.15L56.689 58.975C56.7587 59.0447 56.8414 59.1001 56.9324 59.1378C57.0235 59.1755 57.1211 59.195 57.2196 59.195C57.3182 59.195 57.4158 59.1755 57.5068 59.1378C57.5979 59.1001 57.6806 59.0447 57.7502 58.975L58.975 57.7502C59.0447 57.6806 59.1001 57.5979 59.1378 57.5068C59.1755 57.4158 59.195 57.3182 59.195 57.2196C59.195 57.1211 59.1755 57.0235 59.1378 56.9324C59.1001 56.8414 59.0447 56.7587 58.975 56.689L58.15 55.858C58.5827 55.1687 58.8966 54.4117 59.0785 53.6185H60.25C60.4489 53.6185 60.6397 53.5395 60.7803 53.3988C60.921 53.2582 61 53.0674 61 52.8685V51.1315C61 50.9326 60.921 50.7418 60.7803 50.6012C60.6397 50.4605 60.4489 50.3815 60.25 50.3815ZM52 55.7898C51.2505 55.7898 50.5177 55.5675 49.8945 55.1511C49.2713 54.7346 48.7856 54.1428 48.4987 53.4503C48.2119 52.7578 48.1368 51.9958 48.2831 51.2607C48.4293 50.5255 48.7902 49.8502 49.3202 49.3202C49.8502 48.7902 50.5255 48.4293 51.2607 48.2831C51.9958 48.1368 52.7578 48.2119 53.4503 48.4987C54.1428 48.7856 54.7346 49.2713 55.1511 49.8945C55.5675 50.5177 55.7898 51.2505 55.7898 52C55.7886 53.0047 55.3889 53.968 54.6784 54.6784C53.968 55.3889 53.0047 55.7886 52 55.7898Z" fill="#0EA5E9"/>
<path d="M33.7803 55.2199C33.6388 55.0833 33.4494 55.0077 33.2527 55.0094C33.0561 55.0111 32.8679 55.09 32.7289 55.229C32.5898 55.3681 32.511 55.5562 32.5092 55.7529C32.5075 55.9495 32.5831 56.139 32.7198 56.2804L32.8405 56.4012C31.0758 56.1239 29.4678 55.2264 28.3056 53.8698C27.1434 52.5132 26.5032 50.7865 26.5 49.0002V48.9604C26.4995 48.863 26.4797 48.7666 26.4415 48.677C26.4034 48.5874 26.3478 48.5062 26.278 48.4383C26.2082 48.3703 26.1256 48.317 26.0349 48.2813C25.9442 48.2457 25.8474 48.2285 25.75 48.2307C25.5491 48.2352 25.358 48.3183 25.2178 48.4622C25.0776 48.6061 24.9994 48.7992 25 49.0002C25.0031 51.2125 25.8201 53.3464 27.2952 54.9952C28.7703 56.644 30.8004 57.6925 32.9988 57.9409L32.7198 58.2199C32.5831 58.3614 32.5075 58.5508 32.5092 58.7475C32.511 58.9441 32.5898 59.1322 32.7289 59.2713C32.8679 59.4103 33.0561 59.4892 33.2527 59.4909C33.4494 59.4926 33.6388 59.417 33.7803 59.2804L35.2803 57.7804C35.4209 57.6398 35.4998 57.449 35.4998 57.2502C35.4998 57.0513 35.4209 56.8606 35.2803 56.7199L33.7803 55.2199Z" fill="#0EA5E9"/>
<path d="M50.3251 28.8861C50.3942 28.9578 50.477 29.0149 50.5685 29.0542C50.66 29.0935 50.7584 29.1142 50.858 29.1151C50.9576 29.1159 51.0564 29.097 51.1485 29.0593C51.2407 29.0216 51.3244 28.9659 51.3949 28.8954C51.4653 28.825 51.521 28.7413 51.5587 28.6491C51.5964 28.5569 51.6154 28.4582 51.6145 28.3586C51.6136 28.259 51.5929 28.1606 51.5536 28.0691C51.5143 27.9776 51.4572 27.8948 51.3856 27.8256L51.2648 27.7049C53.0295 27.9821 54.6375 28.8797 55.7997 30.2363C56.9619 31.5929 57.6021 33.3195 57.6053 35.1059V35.1449C57.6056 35.2424 57.6253 35.3389 57.6633 35.4287C57.7014 35.5184 57.7569 35.5997 57.8268 35.6678C57.8966 35.7358 57.9794 35.7892 58.0701 35.8249C58.1609 35.8605 58.2578 35.8777 58.3553 35.8754C58.5562 35.8709 58.7473 35.7877 58.8875 35.6439C59.0277 35.5 59.1059 35.3068 59.1053 35.1059C59.1023 32.8935 58.2855 30.7595 56.8103 29.1107C55.3352 27.4619 53.305 26.4134 51.1066 26.1651L51.3856 25.8861C51.4572 25.817 51.5143 25.7342 51.5536 25.6427C51.5929 25.5512 51.6136 25.4528 51.6145 25.3532C51.6154 25.2536 51.5964 25.1549 51.5587 25.0627C51.521 24.9705 51.4653 24.8868 51.3949 24.8164C51.3244 24.7459 51.2407 24.6902 51.1485 24.6525C51.0564 24.6148 50.9576 24.5958 50.858 24.5967C50.7584 24.5976 50.66 24.6183 50.5685 24.6576C50.477 24.6969 50.3942 24.754 50.3251 24.8256L48.8251 26.3256C48.6845 26.4663 48.6055 26.657 48.6055 26.8559C48.6055 27.0548 48.6845 27.2455 48.8251 27.3861L50.3251 28.8861Z" fill="#0EA5E9"/>
</svg>
