<svg width="80" height="80" viewBox="0 0 80 80" fill="none" xmlns="http://www.w3.org/2000/svg">
<rect width="80" height="80" rx="8" fill="#25CD7F" fill-opacity="0.1"/>
<g clip-path="url(#clip0_825_1117)">
<path d="M35.9539 56.9804C35.398 55.9995 34.5129 55.2591 33.4637 54.897C32.4144 54.5349 31.2725 54.5759 30.2505 55.0122C29.2285 55.4485 28.3962 56.2505 27.9085 57.2687C27.4208 58.287 27.3111 59.4521 27.5997 60.5471C27.8883 61.6421 28.5556 62.5923 29.4773 63.2207C30.399 63.8492 31.5122 64.113 32.6097 63.9631C33.7072 63.8133 34.7141 63.2598 35.4428 62.406C36.1716 61.5521 36.5726 60.456 36.571 59.3218C36.5707 58.4992 36.3578 57.6914 35.9539 56.9804ZM31.9996 61.6633C31.5475 61.6633 31.1056 61.526 30.7297 61.2687C30.3539 61.0114 30.0609 60.6457 29.8879 60.2179C29.7149 59.79 29.6696 59.3192 29.7578 58.865C29.846 58.4108 30.0637 57.9936 30.3834 57.6662C30.703 57.3387 31.1103 57.1157 31.5537 57.0254C31.9971 56.935 32.4567 56.9814 32.8743 57.1586C33.292 57.3358 33.649 57.6359 33.9001 58.021C34.1513 58.406 34.2853 58.8587 34.2853 59.3218C34.2835 59.9423 34.0421 60.5367 33.6139 60.9755C33.1856 61.4142 32.6053 61.6614 31.9996 61.6633Z" fill="#25CD7F"/>
<path d="M51.9539 56.9804C51.3979 55.9995 50.5129 55.2591 49.4637 54.897C48.4144 54.5349 47.2725 54.5759 46.2505 55.0122C45.2285 55.4485 44.3962 56.2505 43.9085 57.2687C43.4208 58.287 43.3111 59.4521 43.5997 60.5471C43.8883 61.6421 44.5556 62.5923 45.4773 63.2207C46.399 63.8492 47.5122 64.113 48.6097 63.9631C49.7072 63.8133 50.7141 63.2598 51.4428 62.406C52.1716 61.5521 52.5726 60.456 52.571 59.3218C52.5707 58.4992 52.3578 57.6914 51.9539 56.9804ZM47.9996 61.6633C47.5475 61.6633 47.1056 61.526 46.7297 61.2687C46.3539 61.0114 46.0609 60.6457 45.8879 60.2179C45.7149 59.79 45.6696 59.3192 45.7578 58.865C45.846 58.4108 46.0637 57.9936 46.3834 57.6662C46.703 57.3387 47.1103 57.1157 47.5537 57.0254C47.9971 56.935 48.4567 56.9814 48.8743 57.1586C49.292 57.3358 49.649 57.6359 49.9001 58.021C50.1513 58.406 50.2853 58.8587 50.2853 59.3218C50.2835 59.9423 50.0421 60.5367 49.6139 60.9755C49.1856 61.4142 48.6053 61.6614 47.9996 61.6633Z" fill="#25CD7F"/>
<path d="M54.8572 56.9749H26.2858C24.7703 56.9749 23.3168 56.3582 22.2452 55.2604C21.1736 54.1626 20.5715 52.6737 20.5715 51.1212C20.5715 49.5688 21.1736 48.0798 22.2452 46.9821C23.3168 45.8843 24.7703 45.2676 26.2858 45.2676H45.7144C46.0175 45.2676 46.3082 45.3909 46.5225 45.6105C46.7368 45.83 46.8572 46.1278 46.8572 46.4383C46.8572 46.7488 46.7368 47.0466 46.5225 47.2661C46.3082 47.4857 46.0175 47.609 45.7144 47.609H26.2858C25.3765 47.609 24.5044 47.9791 23.8615 48.6377C23.2185 49.2964 22.8572 50.1897 22.8572 51.1212C22.8572 52.0527 23.2185 52.9461 23.8615 53.6047C24.5044 54.2634 25.3765 54.6334 26.2858 54.6334H54.8572C55.1604 54.6334 55.451 54.7568 55.6654 54.9763C55.8797 55.1959 56.0001 55.4937 56.0001 55.8042C56.0001 56.1147 55.8797 56.4124 55.6654 56.632C55.451 56.8516 55.1604 56.9749 54.8572 56.9749Z" fill="#25CD7F"/>
<path d="M63.0286 27.6015C62.8207 27.2739 62.5361 27.0048 62.2008 26.8187C61.8654 26.6327 61.49 26.5355 61.1086 26.5361H26.4686L25.52 22.2512C25.3452 21.4747 24.9193 20.7814 24.3114 20.2841C23.7035 19.7868 22.9494 19.5146 22.1714 19.5117H17.1429C16.8398 19.5117 16.5491 19.6351 16.3347 19.8546C16.1204 20.0742 16 20.372 16 20.6825C16 20.9929 16.1204 21.2907 16.3347 21.5103C16.5491 21.7298 16.8398 21.8532 17.1429 21.8532H22.1714C22.4309 21.8551 22.6823 21.9461 22.8853 22.1117C23.0884 22.2772 23.2314 22.5077 23.2914 22.7664L24.4343 27.941C24.4343 27.9644 24.4457 27.9761 24.4457 27.9878L28.1943 44.8698C28.2255 45.0044 28.2637 45.1373 28.3086 45.2678C28.5477 45.9511 28.9864 46.5423 29.5651 46.9613C30.1438 47.3802 30.8343 47.6064 31.5429 47.6093H53.36C54.0275 47.6107 54.6808 47.412 55.2393 47.0375C55.7978 46.663 56.2371 46.1292 56.5029 45.502L63.2114 29.8142C63.3632 29.4589 63.426 29.0705 63.3941 28.6841C63.3621 28.2976 63.2365 27.9255 63.0286 27.6015Z" fill="#25CD7F"/>
<path d="M42.285 17.1699C39.9301 17.1726 37.6337 17.9212 35.7104 19.3131C33.7871 20.7051 32.331 22.6722 31.5418 24.945C30.7526 27.2178 30.6688 29.6851 31.3019 32.0085C31.9351 34.332 33.2542 36.3981 35.0784 37.9236C36.9026 39.4491 39.1427 40.3593 41.4917 40.5296C43.8407 40.6999 46.1837 40.1219 48.1994 38.8748C50.2152 37.6276 51.8052 35.7725 52.7514 33.5635C53.6977 31.3545 53.9539 28.8998 53.485 26.5358C52.9529 23.894 51.5488 21.5206 49.509 19.8149C47.4692 18.1091 44.9182 17.1751 42.285 17.1699Z" fill="#25CD7F"/>
<path d="M42.2508 16.25H42.2502C39.849 16.25 37.5032 16.9875 35.5097 18.367C33.5163 19.7463 31.9652 21.705 31.05 23.9933C30.1348 26.2815 29.8955 28.7983 30.3619 31.2264L30.8098 31.1404L30.3619 31.2264C30.8283 33.6545 31.9798 35.8871 33.6735 37.6411C35.3674 39.3953 37.5277 40.5921 39.8822 41.0771L39.8822 41.0771C42.237 41.5621 44.6774 41.313 46.8943 40.3621L46.8943 40.3621C49.111 39.4111 51.0027 37.8022 52.3325 35.7413L51.9562 35.4985L52.3325 35.7412C53.662 33.6806 54.3707 31.2595 54.3707 28.7843V28.7837C54.367 25.4663 53.093 22.2825 50.8229 19.9315L50.4779 20.2646L50.8229 19.9315C48.5522 17.58 45.4698 16.2539 42.2508 16.25ZM38.0903 28.2515L38.0903 28.2515C38.2259 28.1111 38.4055 28.0348 38.5895 28.0331C38.7722 28.0314 38.9517 28.1035 39.0891 28.2395L40.6673 29.8739L41.027 30.2464L41.3866 29.8739L45.4113 25.706C45.5486 25.57 45.7282 25.4979 45.9109 25.4996H45.9109C46.0949 25.5012 46.2745 25.5775 46.41 25.7179C46.5461 25.8589 46.6263 26.0531 46.628 26.2596C46.6297 26.4647 46.5539 26.6593 46.4216 26.8025L41.5321 31.8661C41.3951 32.008 41.213 32.0844 41.027 32.0844C40.8409 32.0844 40.6588 32.008 40.5218 31.8661L38.0788 29.3361C37.9465 29.1928 37.8707 28.9982 37.8724 28.7931C37.8741 28.5866 37.9542 28.3924 38.0903 28.2515Z" fill="#F8F7F8" stroke="#25CD7F"/>
</g>
<defs>
<clipPath id="clip0_825_1117">
<rect width="48" height="48" fill="white" transform="translate(16 16)"/>
</clipPath>
</defs>
</svg>
