<svg width="80" height="80" viewBox="0 0 80 80" fill="none" xmlns="http://www.w3.org/2000/svg">
<rect width="80" height="80" rx="8" fill="#EE1243" fill-opacity="0.1"/>
<path d="M47.5 19H44.242C43.624 17.254 41.956 16 40 16C38.044 16 36.376 17.254 35.755 19H32.5C31.672 19 31 19.672 31 20.5V26.5C31 27.328 31.672 28 32.5 28H47.5C48.328 28 49 27.328 49 26.5V20.5C49 19.672 48.328 19 47.5 19Z" fill="#EE1243" fill-opacity="0.933333"/>
<path d="M55 22H52V26.5C52 28.981 49.981 31 47.5 31H32.5C30.019 31 28 28.981 28 26.5V22H25C23.347 22 22 23.347 22 25V61C22 62.683 23.317 64 25 64H55C56.683 64 58 62.683 58 61V25C58 23.317 56.683 22 55 22ZM39.562 48.562L33.562 54.562C33.268 54.853 32.884 55 32.5 55C32.116 55 31.732 54.853 31.438 54.562L28.438 51.562C27.853 50.977 27.853 50.026 28.438 49.441C29.023 48.856 29.974 48.856 30.559 49.441L32.5 51.379L37.438 46.441C38.023 45.856 38.974 45.856 39.559 46.441C40.144 47.026 40.147 47.974 39.562 48.562ZM39.562 36.562L33.562 42.562C33.268 42.853 32.884 43 32.5 43C32.116 43 31.732 42.853 31.438 42.562L28.438 39.562C27.853 38.977 27.853 38.026 28.438 37.441C29.023 36.856 29.974 36.856 30.559 37.441L32.5 39.379L37.438 34.441C38.023 33.856 38.974 33.856 39.559 34.441C40.144 35.026 40.147 35.974 39.562 36.562ZM50.5 52H44.5C43.672 52 43 51.328 43 50.5C43 49.672 43.672 49 44.5 49H50.5C51.328 49 52 49.672 52 50.5C52 51.328 51.328 52 50.5 52ZM50.5 40H44.5C43.672 40 43 39.328 43 38.5C43 37.672 43.672 37 44.5 37H50.5C51.328 37 52 37.672 52 38.5C52 39.328 51.328 40 50.5 40Z" fill="#EE1243"/>
</svg>
