<svg width="80" height="80" viewBox="0 0 80 80" fill="none" xmlns="http://www.w3.org/2000/svg">
<rect width="80" height="80" rx="8" fill="#FFB134" fill-opacity="0.1"/>
<g clip-path="url(#clip0_825_2340)">
<path d="M43.2648 47.8844C43.0856 47.6881 42.8588 47.5412 42.6244 47.4189C42.1141 47.1528 41.5561 46.9914 41.002 46.8457V51.1395C41.9013 51.0378 42.9339 50.7114 43.4061 49.8718C43.6316 49.4707 43.6764 48.9779 43.5846 48.5314C43.5348 48.2895 43.4319 48.0674 43.2648 47.8844Z" fill="#FFB134"/>
<path d="M43.4014 49.8813C43.4032 49.8782 43.4042 49.8763 43.4061 49.873C43.4045 49.8758 43.4029 49.8785 43.4014 49.8813Z" fill="black"/>
<path d="M36.7832 41.0217C36.6286 41.2474 36.5316 41.5039 36.5048 41.7766C36.478 42.0498 36.493 42.3538 36.5968 42.6109C36.6957 42.856 36.9027 43.037 37.1164 43.1827C37.3562 43.3458 37.6199 43.4732 37.8885 43.5811C38.1138 43.6718 38.3673 43.7586 38.6405 43.8424V39.957C37.9503 40.1043 37.1961 40.4188 36.7832 41.0217Z" fill="#FFB134"/>
<path d="M43.424 49.8418C43.4183 49.8518 43.4122 49.8624 43.4062 49.8734C43.4133 49.8605 43.4188 49.8511 43.424 49.8418Z" fill="black"/>
<path d="M43.4465 49.8004C43.4478 49.7982 43.4476 49.7984 43.4465 49.8004Z" fill="black"/>
<path d="M42.5146 26.444C46.166 23.3766 48.6059 16.4662 47.1044 16.164C45.1093 15.7622 40.7769 17.5239 38.6829 17.8342C35.7128 18.1928 32.478 14.6136 30.6623 16.6086C29.186 18.2308 31.7207 24.13 35.6864 26.7C23.855 32.5149 7.22523 61.7064 36.2368 63.8245C76.3792 66.7553 56.2785 32.1106 42.5146 26.444ZM45.962 49.4658C45.8386 50.6038 45.2354 51.633 44.3339 52.3317C43.382 53.0695 42.188 53.4126 41.0018 53.5087V54.7662C41.0018 55.1026 40.8548 55.428 40.6029 55.6507C40.2568 55.9571 39.7481 56.0326 39.3279 55.839C38.913 55.6482 38.6405 55.2227 38.6405 54.7662V53.3918C38.4371 53.3532 38.2351 53.3072 38.0356 53.2524C36.9269 52.9478 35.8985 52.3541 35.1473 51.4756C34.7731 51.0377 34.468 50.5408 34.2571 50.0044C34.2019 49.8643 34.1528 49.7215 34.1098 49.5772C34.0708 49.4465 34.0306 49.3137 34.0167 49.1774C33.9933 48.949 34.0386 48.7158 34.1451 48.5123C34.364 48.0936 34.8253 47.8407 35.2963 47.8827C35.7598 47.9239 36.1661 48.2455 36.312 48.6874C36.357 48.8235 36.3874 48.963 36.4379 49.0976C36.488 49.2313 36.5484 49.3613 36.6194 49.4851C36.7597 49.7288 36.9355 49.9536 37.1379 50.1487C37.5551 50.5506 38.0865 50.8119 38.6405 50.9673V46.2956C37.5572 46.0152 36.4391 45.6529 35.5445 44.9574C35.1098 44.6193 34.7409 44.1991 34.4993 43.7018C34.2444 43.1769 34.1388 42.5922 34.1345 42.0114C34.1301 41.4217 34.2421 40.8373 34.4881 40.3C34.7186 39.7969 35.0503 39.3452 35.457 38.9708C36.3267 38.1704 37.4819 37.7239 38.6406 37.5599V37.4571V36.2546C38.6406 35.9182 38.7876 35.5927 39.0394 35.37C39.3857 35.0638 39.8942 34.9881 40.3145 35.1817C40.7292 35.3727 41.0019 35.798 41.0019 36.2546V37.4571V37.5528C41.1563 37.5722 41.3102 37.5955 41.4634 37.6232C42.6012 37.8291 43.7141 38.299 44.5461 39.1193C44.9403 39.5079 45.263 39.9708 45.4899 40.4757C45.5533 40.6166 45.6087 40.7607 45.6567 40.9076C45.7015 41.0446 45.7464 41.1857 45.7678 41.3287C45.8019 41.5569 45.7671 41.7928 45.6694 42.0016C45.4692 42.4295 45.0204 42.7019 44.5482 42.6817C44.0842 42.6614 43.6638 42.3593 43.4977 41.9256C43.4482 41.7966 43.4234 41.6601 43.373 41.5314C43.322 41.4012 43.2561 41.277 43.18 41.1596C43.0323 40.9314 42.8409 40.7358 42.6223 40.5747C42.1491 40.2252 41.5751 40.0431 41.0015 39.9414V44.412C41.6832 44.5752 42.3654 44.7532 43.0184 45.0107C44.0055 45.4 44.9408 45.9968 45.4795 46.9378C45.3959 46.7912 45.3146 46.6483 45.4823 46.9427C45.647 47.2318 45.5684 47.094 45.4857 46.9491C45.9144 47.7045 46.0552 48.6077 45.962 49.4658Z" fill="#FFB134"/>
<path d="M43.3887 49.9023C43.3818 49.9147 43.3758 49.9255 43.3711 49.9337C43.3752 49.9266 43.3813 49.9159 43.3887 49.9023Z" fill="black"/>
</g>
<defs>
<clipPath id="clip0_825_2340">
<rect width="48" height="48" fill="white" transform="translate(16 16)"/>
</clipPath>
</defs>
</svg>
