<svg width="80" height="80" viewBox="0 0 80 80" fill="none" xmlns="http://www.w3.org/2000/svg">
<rect width="80" height="80" rx="8" fill="#FB923C" fill-opacity="0.1"/>
<g clip-path="url(#clip0_6267_14371)">
<path d="M53.1825 41.7897V17.5374C53.1825 16.7401 52.5361 16.0938 51.7385 16.0938H41.4872V30.5613C41.4872 31.7108 40.2073 32.3945 39.2522 31.769L34.5918 28.7159L29.9303 31.769C28.9734 32.396 27.6953 31.7094 27.6953 30.5613V16.0938H17.4436C16.6464 16.0938 16 16.7401 16 17.5374V48.4924C16 49.29 16.6464 49.9364 17.4436 49.9364H43.0337C44.5546 45.584 48.4631 42.3423 53.1825 41.7897Z" fill="#FB923C"/>
<path d="M35.3822 25.7822L38.5997 27.889V16.0938H30.583V27.889L33.8005 25.7822C34.281 25.4677 34.9017 25.4677 35.3822 25.7822Z" fill="#FB923C"/>
<path d="M54.626 44.5938H54.6194C49.454 44.5938 45.2378 48.7949 45.2378 53.9753C45.2378 59.1477 49.4459 63.3558 54.6194 63.3558C59.7917 63.3558 63.9999 59.1477 63.9999 53.9753C63.9999 48.7861 59.7716 44.5938 54.626 44.5938ZM59.8774 55.4189H54.6194C53.8214 55.4189 53.1754 54.7722 53.1754 53.9753C53.1754 51.5627 53.1824 48.848 53.1824 47.6256C53.2498 46.8914 53.8668 46.3168 54.6194 46.3168H54.626C55.4203 46.3204 56.063 46.9653 56.063 47.7604V52.5317H59.8774C60.6754 52.5317 61.3214 53.1774 61.3214 53.9753C61.3214 54.7722 60.6754 55.4189 59.8774 55.4189Z" fill="#FB923C"/>
</g>
<defs>
<clipPath id="clip0_6267_14371">
<rect width="48" height="48" fill="white" transform="translate(16 16)"/>
</clipPath>
</defs>
</svg>
