<svg width="80" height="80" viewBox="0 0 80 80" fill="none" xmlns="http://www.w3.org/2000/svg">
<rect width="80" height="80" rx="8" fill="#27AE60" fill-opacity="0.1"/>
<path d="M41 17H45V21H41V17Z" fill="#27AE60"/>
<path d="M53 37V19C53 18.4696 52.7893 17.9609 52.4142 17.5858C52.0391 17.2107 51.5304 17 51 17H47V22C47 22.2652 46.8946 22.5196 46.7071 22.7071C46.5196 22.8946 46.2652 23 46 23H40C39.7348 23 39.4804 22.8946 39.2929 22.7071C39.1054 22.5196 39 22.2652 39 22V17H33V39H51C51.5304 39 52.0391 38.7893 52.4142 38.4142C52.7893 38.0391 53 37.5304 53 37ZM39 36H37C36.7348 36 36.4804 35.8946 36.2929 35.7071C36.1054 35.5196 36 35.2652 36 35C36 34.7348 36.1054 34.4804 36.2929 34.2929C36.4804 34.1054 36.7348 34 37 34H39C39.2652 34 39.5196 34.1054 39.7071 34.2929C39.8946 34.4804 40 34.7348 40 35C40 35.2652 39.8946 35.5196 39.7071 35.7071C39.5196 35.8946 39.2652 36 39 36Z" fill="#27AE60"/>
<path d="M29 39H31V17H29C28.4696 17 27.9609 17.2107 27.5858 17.5858C27.2107 17.9609 27 18.4696 27 19V37C27 37.5304 27.2107 38.0391 27.5858 38.4142C27.9609 38.7893 28.4696 39 29 39Z" fill="#27AE60"/>
<path d="M62 41.2503C61.1868 40.6403 60.1718 40.3629 59.1613 40.4743C58.1509 40.5858 57.2208 41.0778 56.56 41.8503C48.47 51.2903 48.66 51.1703 48.56 51.1703L47 53.0003H36C35.7348 53.0003 35.4804 52.895 35.2929 52.7074C35.1054 52.5199 35 52.2655 35 52.0003C35 51.7351 35.1054 51.4808 35.2929 51.2932C35.4804 51.1057 35.7348 51.0003 36 51.0003H47C47 49.9395 46.5786 48.922 45.8284 48.1719C45.0783 47.4218 44.0609 47.0003 43 47.0003H38C34.11 44.4103 30.2 44.4703 27 46.4003V60.4003C28.82 61.2503 28.54 61.0203 45.78 61.0203C47.0801 61.0202 48.3605 60.7032 49.5105 60.0969C50.6606 59.4905 51.6455 58.613 52.38 57.5403L63 42.0003L62 41.2503Z" fill="#27AE60"/>
<path d="M23 43H19C17.8954 43 17 43.8954 17 45V61C17 62.1046 17.8954 63 19 63H23C24.1046 63 25 62.1046 25 61V45C25 43.8954 24.1046 43 23 43Z" fill="#27AE60"/>
</svg>
