<svg width="80" height="80" viewBox="0 0 80 80" fill="none" xmlns="http://www.w3.org/2000/svg">
<rect width="80" height="80" rx="8" fill="#DA55F0" fill-opacity="0.1"/>
<g clip-path="url(#clip0_825_2730)">
<path d="M54.5355 41.4278C53.8696 48.3475 48.3481 53.869 41.4285 54.5348V63.9994C47.3153 63.6615 52.8028 61.2093 57.0064 57.0057C61.21 52.8021 63.6621 47.3147 64 41.4277H54.5355V41.4278Z" fill="#DA55F0"/>
<path d="M38.6135 54.5356C31.2305 53.8252 25.4383 47.5872 25.4383 40.0211C25.4383 36.5989 26.6095 33.3569 28.7616 30.7522L22.07 24.0605C18.1463 28.4622 16 34.0764 16 40.0211C16 46.4373 18.4986 52.4695 23.0355 57.0064C27.2391 61.21 32.7266 63.6622 38.6135 64.0001V54.5356Z" fill="#DA55F0"/>
<path d="M30.7522 28.7616C33.3569 26.6095 36.5989 25.4383 40.0211 25.4383C47.5872 25.4383 53.8252 31.2305 54.5356 38.6135H64C63.6621 32.7266 61.2099 27.2391 57.0064 23.0356C52.4695 18.4986 46.4373 16 40.0211 16C34.0764 16 28.4621 18.1463 24.0605 22.07L30.7522 28.7616Z" fill="#DA55F0"/>
<path d="M41.9308 38.4623C40.6576 38.0123 39.2494 37.4687 38.4596 36.8493C38.2114 36.6547 38.1041 36.209 38.1924 35.7403C38.2365 35.5064 38.4424 34.7249 39.2418 34.4841C40.5543 34.0888 41.4544 34.6131 41.7804 34.8568C42.4031 35.3222 43.285 35.1948 43.7504 34.5723C44.2159 33.9497 44.0885 33.0677 43.4659 32.6022C43.1705 32.3813 42.4306 31.8971 41.3697 31.662V31.0891C41.3697 30.3118 40.7395 29.6816 39.9622 29.6816C39.1849 29.6816 38.5548 30.3118 38.5548 31.0891V31.7537C38.5132 31.7654 38.4719 31.7761 38.4299 31.7887C36.8883 32.2531 35.7374 33.5675 35.4261 35.2189C35.1397 36.739 35.6363 38.2124 36.7223 39.0642C37.6172 39.7659 38.8544 40.3605 40.9926 41.1164C42.4162 41.6196 42.3854 42.7718 42.306 43.2438C42.1452 44.2008 41.3401 45.235 39.9528 45.2443C38.593 45.2534 38.1684 45.1861 37.1232 44.5023C36.4726 44.0768 35.6004 44.2591 35.1748 44.9096C34.7493 45.5602 34.9317 46.4324 35.5822 46.8579C36.7095 47.5954 37.5412 47.8945 38.5547 48.0036V48.6469C38.5547 49.4243 39.1848 50.0544 39.9622 50.0544C40.7395 50.0544 41.3696 49.4243 41.3696 48.6469V47.8684C42.145 47.655 42.8516 47.265 43.4555 46.7101C44.3114 45.9238 44.8889 44.8585 45.0819 43.7105C45.4746 41.3765 44.2081 39.2674 41.9308 38.4623Z" fill="#DA55F0"/>
</g>
<defs>
<clipPath id="clip0_825_2730">
<rect width="48" height="48" fill="white" transform="translate(16 16)"/>
</clipPath>
</defs>
</svg>
