<svg width="80" height="80" viewBox="0 0 80 80" fill="none" xmlns="http://www.w3.org/2000/svg">
<rect width="80" height="80" rx="8" fill="#5B68FF" fill-opacity="0.1"/>
<path d="M22.6124 47.3771V46.6149C22.6324 45.6035 20.2247 45.5959 20.2348 46.6149V47.5676C20.2097 47.7691 20.101 47.9552 19.9297 48.0905C19.7583 48.2257 19.5363 48.3005 19.3062 48.3005C19.076 48.3005 18.854 48.2257 18.6826 48.0905C18.5113 47.9552 18.4026 47.7691 18.3775 47.5676V46.6148C18.364 46.4094 18.2588 46.217 18.0847 46.0797C17.9107 45.9424 17.6821 45.8713 17.4488 45.8819H16.9287C16.6953 45.8713 16.4667 45.9424 16.2927 46.0797C16.1187 46.217 16.0135 46.4094 16 46.6148V61.6538C16.0135 61.8592 16.1187 62.0516 16.2927 62.1889C16.4667 62.3262 16.6953 62.3973 16.9287 62.3867H21.6925C21.9259 62.3973 22.1546 62.3262 22.3286 62.1888C22.5026 62.0514 22.6078 61.859 22.6211 61.6535C22.624 61.6496 22.6102 47.383 22.6124 47.3771Z" fill="#5B68FF"/>
<path d="M63.7071 51.968C63.6235 51.8079 63.5041 51.6642 63.3559 51.5456C63.2078 51.427 63.034 51.336 62.845 51.278C62.656 51.22 62.4556 51.1961 62.2558 51.2079C62.0561 51.2196 61.8611 51.2668 61.6825 51.3465L48.7737 57.5293C48.6374 57.5968 48.4842 57.6333 48.3279 57.6356H39.6446C39.4011 57.6319 39.169 57.5441 38.9983 57.3911C38.8276 57.2381 38.732 57.0322 38.732 56.8178C38.732 56.6033 38.8277 56.3974 38.9984 56.2444C39.1691 56.0915 39.4012 56.0037 39.6447 55.9999H46.8791C47.4374 56.0094 47.8996 55.3915 47.8171 54.7977C47.8001 54.0001 47.4726 53.2319 46.8894 52.6215C46.3062 52.0111 45.5026 51.5956 44.6131 51.4446L38.1494 50.7412C34.7921 50.5842 31.7736 47.6627 28.5839 47.0608C27.5038 46.7949 25.5258 47.1819 24.4697 47.2572V60.2446L32.6515 63.4668C33.5797 63.8328 34.588 64.0143 35.6048 63.9984L46.2291 63.7858C47.6391 63.7513 49.0047 63.3438 50.1481 62.6163L63.1684 54.4952C63.5819 54.1973 63.8627 53.7805 63.9613 53.3181C64.0598 52.8558 63.9698 52.3776 63.7071 51.968Z" fill="#5B68FF"/>
<path d="M28.2584 45.3607C31.804 45.5697 34.8684 48.8097 38.3719 49.1229L44.8449 49.8262C46.2665 50.0457 47.5451 50.7215 48.4337 51.723C49.3223 52.7246 49.7576 53.9807 49.6556 55.2485C51.441 54.3934 58.765 50.8925 60.4098 50.1043C63.9946 39.9548 54.4569 31.4575 51.2715 28.9713C48.3994 31.3326 39.8855 31.3211 36.9881 28.9551C34.267 30.9913 27.0975 37.1497 27.1625 45.328C27.5276 45.2904 27.8971 45.3014 28.2584 45.3607ZM51.1601 44.0113C51.1518 44.653 50.8566 45.2659 50.3385 45.717C49.8204 46.1682 49.1211 46.4212 48.3925 46.4212C47.6638 46.4212 46.9646 46.1681 46.4465 45.717C45.9284 45.2658 45.6332 44.6529 45.625 44.0113C45.6332 43.3696 45.9284 42.7567 46.4465 42.3056C46.9647 41.8544 47.6639 41.6014 48.3926 41.6014C49.1212 41.6014 49.8205 41.8545 50.3386 42.3056C50.8567 42.7568 51.1519 43.3697 51.1601 44.0113ZM48.0211 33.314C48.1709 33.1455 48.3897 33.0355 48.6306 33.0075C48.8715 32.9795 49.1153 33.0357 49.3096 33.1641C49.504 33.2925 49.6335 33.4828 49.6704 33.6943C49.7073 33.9058 49.6486 34.1216 49.5069 34.2954L40.3686 45.0009C40.2173 45.1686 39.9975 45.2775 39.7562 45.3043C39.5149 45.3312 39.2712 45.2739 39.0772 45.1447C38.8832 45.0155 38.7543 44.8247 38.7179 44.6129C38.6816 44.4011 38.7407 44.1852 38.8827 44.0113L48.0211 33.314ZM39.9971 32.627C40.7256 32.6344 41.4213 32.8944 41.9335 33.3507C42.4456 33.807 42.7328 34.4226 42.7328 35.0642C42.7328 35.7057 42.4455 36.3214 41.9334 36.7776C41.4212 37.2339 40.7255 37.4939 39.997 37.5013C39.2686 37.4939 38.5728 37.2338 38.0607 36.7776C37.5486 36.3213 37.2614 35.7057 37.2614 35.0641C37.2614 34.4226 37.5486 33.8069 38.0608 33.3507C38.5729 32.8944 39.2687 32.6344 39.9971 32.627Z" fill="#5B68FF"/>
<path d="M38.6973 28.0871C41.9583 29.3258 45.6303 29.4339 48.978 28.3898C51.5814 27.5382 51.4277 23.9246 48.8014 23.2455C48.2761 23.1063 47.7145 23.1149 47.1949 23.27C45.1376 23.8674 42.9134 23.8473 40.8705 23.2128C37.7197 22.5754 36.1192 26.575 38.6973 28.0871Z" fill="#5B68FF"/>
<path d="M40.0531 21.5122C40.5978 21.4888 41.1428 21.5554 41.6597 21.7085C43.2576 22.1897 44.9912 22.1925 46.5911 21.7167C47.0518 21.5787 47.5347 21.5069 48.0213 21.5041C49.1679 20.2897 49.9672 18.851 50.3523 17.3085C50.3708 16.5398 50.1573 16.3517 50.1573 16.3517C49.7708 16.4038 49.4079 16.548 49.1079 16.7688C48.933 16.8886 48.7153 16.9495 48.4939 16.9405C48.2726 16.9315 48.0622 16.8532 47.9006 16.7197C47.7218 16.4983 47.4854 16.3179 47.211 16.1937C46.9367 16.0695 46.6325 16.0051 46.324 16.0059C46.0155 16.0067 45.7118 16.0727 45.4383 16.1983C45.1648 16.324 44.9295 16.5056 44.7523 16.7279C44.6721 16.8238 44.5694 16.9033 44.4512 16.9611C44.333 17.019 44.2021 17.0537 44.0673 17.063C43.9325 17.0723 43.797 17.056 43.6701 17.0151C43.5431 16.9742 43.4276 16.9097 43.3314 16.826C43.1107 16.5817 42.8334 16.3816 42.5179 16.2391C42.2024 16.0967 41.856 16.0152 41.5018 16C40.1416 16.2434 40.4903 17.0172 39.4959 17.0632C38.7997 17.0825 38.7341 16.4768 38.0471 16.3271C38.0006 16.3125 37.9505 16.3085 37.9018 16.3157C37.853 16.3229 37.8071 16.3409 37.7685 16.368C37.0189 17.5956 38.3986 19.7921 40.0531 21.5122Z" fill="#5B68FF"/>
<path d="M47.4824 44.0106C47.4859 44.2211 47.5833 44.422 47.7536 44.5698C47.924 44.7176 48.1535 44.8004 48.3926 44.8004C48.6317 44.8004 48.8612 44.7176 49.0315 44.5698C49.2018 44.422 49.2992 44.2211 49.3027 44.0106C49.2992 43.8 49.2018 43.5991 49.0315 43.4514C48.8612 43.3036 48.6317 43.2207 48.3926 43.2207C48.1535 43.2207 47.924 43.3036 47.7536 43.4514C47.5833 43.5991 47.4859 43.8 47.4824 44.0106Z" fill="#5B68FF"/>
<path d="M39.9975 35.8647C40.2366 35.8616 40.4647 35.7758 40.6325 35.6259C40.8003 35.4759 40.8944 35.2738 40.8944 35.0632C40.8944 34.8527 40.8003 34.6505 40.6325 34.5006C40.4647 34.3506 40.2366 34.2648 39.9975 34.2617C39.7584 34.2648 39.5303 34.3506 39.3625 34.5006C39.1947 34.6505 39.1006 34.8527 39.1006 35.0632C39.1006 35.2738 39.1947 35.4759 39.3625 35.6259C39.5303 35.7758 39.7584 35.8616 39.9975 35.8647Z" fill="#5B68FF"/>
</svg>
