<svg width="20" height="22" viewBox="0 0 20 22" fill="none" xmlns="http://www.w3.org/2000/svg">
<path d="M9.99955 13.5C7.35782 13.5 5.00855 14.7755 3.51288 16.755C3.19097 17.181 3.03002 17.394 3.03528 17.6819C3.03935 17.9043 3.17902 18.1849 3.35402 18.3222C3.58054 18.5 3.89444 18.5 4.52224 18.5H15.4769C16.1047 18.5 16.4186 18.5 16.6451 18.3222C16.8201 18.1849 16.9598 17.9043 16.9638 17.6819C16.9691 17.394 16.8081 17.181 16.4862 16.755C14.9906 14.7755 12.6413 13.5 9.99955 13.5Z" stroke="white" stroke-width="2" stroke-linecap="round" stroke-linejoin="round"/>
<path d="M10 11C12.071 11 13.7501 9.32107 13.7501 7.25C13.7501 5.17893 12.071 3.5 10 3.5C7.92893 3.5 6.25 5.17893 6.25 7.25C6.25 9.32107 7.92893 11 10 11Z" stroke="white" stroke-width="2" stroke-linecap="round" stroke-linejoin="round"/>
</svg>
